<svg xmlns="http://www.w3.org/2000/svg" viewBox="0 0 700 700"><defs><style>.cls-1{fill:red;}.cls-2{fill:#fff;}</style></defs><title>icons</title><g id="ELEMENTS"><path class="cls-1" d="M486.38,628.7H213.62A139.81,139.81,0,0,1,73.81,488.89V216.14A139.81,139.81,0,0,1,213.62,76.33H486.38A139.81,139.81,0,0,1,626.19,216.14V488.89A139.81,139.81,0,0,1,486.38,628.7Z"/><path class="cls-2" d="M496.07,319.19a65.52,65.52,0,0,0-65.52-65.51H263a65.51,65.51,0,0,0-65.51,65.51v78A65.51,65.51,0,0,0,263,462.66H430.55a65.52,65.52,0,0,0,65.52-65.51ZM397.55,364l-75.13,37.17c-2.94,1.59-12.95-.55-12.95-3.89V321c0-3.4,10.09-5.52,13-3.84l71.91,39.12C397.43,358,400.6,362.36,397.55,364Z"/></g></svg>