<svg xmlns="http://www.w3.org/2000/svg" viewBox="0 0 700 700"><defs><style>.cls-1{fill:#ee1d52;}.cls-1,.cls-2,.cls-3{fill-rule:evenodd;}.cls-2{fill:#fff;}.cls-3{fill:#69c9d0;}</style></defs><title>icons</title><g id="ELEMENTS"><path d="M486.38,628.7H213.62A139.81,139.81,0,0,1,73.81,488.89V216.14A139.81,139.81,0,0,1,213.62,76.33H486.38A139.81,139.81,0,0,1,626.19,216.14V488.89A139.81,139.81,0,0,1,486.38,628.7Z"/><path class="cls-1" d="M421.66,309.33a134.51,134.51,0,0,0,78.46,25.1V278.15a79.2,79.2,0,0,1-16.47-1.72v44.3a134.55,134.55,0,0,1-78.47-25.1V410.47a104.1,104.1,0,0,1-162,86.42,104.09,104.09,0,0,0,178.48-72.72V309.33ZM442,252.56a78.46,78.46,0,0,1-20.33-45.92V199.4H406.05A78.76,78.76,0,0,0,442,252.56ZM279.53,452.81a47.63,47.63,0,0,1,52.34-74.16V321.12a105.54,105.54,0,0,0-16.47-.94V365a47.6,47.6,0,0,0-35.87,87.86Z"/><path class="cls-2" d="M405.18,295.63a134.55,134.55,0,0,0,78.47,25.1v-44.3A78.82,78.82,0,0,1,442,252.56a78.76,78.76,0,0,1-35.94-53.16H365V424.16a47.62,47.62,0,0,1-85.5,28.65A47.61,47.61,0,0,1,315.4,365V320.18a104,104,0,0,0-72.22,176.71,104.09,104.09,0,0,0,162-86.42Z"/><path class="cls-3" d="M483.65,276.43v-12A78.44,78.44,0,0,1,442,252.56,78.67,78.67,0,0,0,483.65,276.43Zm-77.6-77q-.57-3.21-.87-6.46V185.7H348.55V410.47a47.64,47.64,0,0,1-69,42.34A47.62,47.62,0,0,0,365,424.16V199.4ZM315.4,320.18V307.43a104,104,0,0,0-72.22,189.46A104,104,0,0,1,315.4,320.18Z"/></g></svg>