<svg xmlns="http://www.w3.org/2000/svg" viewBox="0 0 700 700"><defs><style>.cls-1{fill:#3cf;}.cls-2{fill:#fff;fill-rule:evenodd;}</style></defs><title>icons</title><g id="ELEMENTS"><path class="cls-1" d="M489.68,633.7H216.92A139.81,139.81,0,0,1,77.11,493.89V221.14A139.81,139.81,0,0,1,216.92,81.33H489.68A139.81,139.81,0,0,1,629.49,221.14V493.89A139.81,139.81,0,0,1,489.68,633.7Z"/><path class="cls-2" d="M508.53,229.87,461.7,517.11c-2.24,13.71-20.27,18.13-32.84,8.19L319,438.33c-15.66-12.39-18.08-33.35-5.62-46.63q43.86-46.71,88.16-93.92c5.13-5.46-3.3-13-9.76-8.77Q322.61,334.18,256,377.62A34.22,34.22,0,0,1,223.55,380l-72.41-32.39c-12.74-5.7-11.47-23.53,1.9-27.9L481,212.34C495.14,207.73,510.55,217.44,508.53,229.87Z"/></g></svg>