<svg xmlns="http://www.w3.org/2000/svg" viewBox="0 0 700 700"><defs><style>.cls-1{fill:#337fff;}.cls-2{fill:#fff;}</style></defs><title>icons</title><g id="ELEMENTS"><path class="cls-1" d="M486.59,629.7H392.94l-42.73-14.11L307.84,629.7h-94A139.81,139.81,0,0,1,74,489.89V217.14A139.81,139.81,0,0,1,213.84,77.33H486.59A139.8,139.8,0,0,1,626.4,217.14V489.89A139.8,139.8,0,0,1,486.59,629.7Z"/><path class="cls-2" d="M307.58,293.41v60.1H238.31v78.87h69.27V629.7h85.26V432.38h63.57l12.1-78.87H392.84V302.33c0-21.57,10.57-42.6,44.46-42.6h34.41V192.59s-31.23-5.33-61.08-5.33C348.31,187.26,307.58,225,307.58,293.41Z"/></g></svg>