<svg xmlns="http://www.w3.org/2000/svg" xmlns:xlink="http://www.w3.org/1999/xlink" viewBox="0 0 700 700"><defs><style>.cls-1{fill:url(#linear-gradient);}.cls-2{fill:#fff;}</style><linearGradient id="linear-gradient" x1="58.51" y1="71.96" x2="600.39" y2="613.83" gradientUnits="userSpaceOnUse"><stop offset="0" stop-color="#fbe18a"/><stop offset="0.21" stop-color="#fcbb45"/><stop offset="0.38" stop-color="#f75274"/><stop offset="0.52" stop-color="#d53692"/><stop offset="0.74" stop-color="#8f39ce"/><stop offset="1" stop-color="#5b4fe9"/></linearGradient></defs><title>icons</title><g id="ELEMENTS"><path class="cls-1" d="M477.11,630.37H204.36A139.82,139.82,0,0,1,64.54,490.56V217.8A139.82,139.82,0,0,1,204.36,78H477.11A139.81,139.81,0,0,1,616.92,217.8V490.56A139.81,139.81,0,0,1,477.11,630.37Z"/><path class="cls-2" d="M425.42,251.91a18.76,18.76,0,1,0,18.75,18.75A18.75,18.75,0,0,0,425.42,251.91Z"/><path class="cls-2" d="M342.05,276a78.78,78.78,0,1,0,78.77,78.78A78.87,78.87,0,0,0,342.05,276Zm0,129.24a50.46,50.46,0,1,1,50.46-50.46A50.52,50.52,0,0,1,342.05,405.2Z"/><path class="cls-2" d="M404.59,514.68H276.87a96.19,96.19,0,0,1-96.08-96.08V290.88a96.19,96.19,0,0,1,96.08-96.08H404.59a96.2,96.2,0,0,1,96.09,96.08V418.6A96.2,96.2,0,0,1,404.59,514.68ZM276.87,224.89a66.07,66.07,0,0,0-66,66V418.6a66.07,66.07,0,0,0,66,66H404.59a66.07,66.07,0,0,0,66-66V290.88a66.07,66.07,0,0,0-66-66Z"/></g></svg>