<svg xmlns="http://www.w3.org/2000/svg" viewBox="0 0 700 700"><defs><style>.cls-1{fill:#00d95f;}.cls-2,.cls-3{fill:#fff;}.cls-3{fill-rule:evenodd;}</style></defs><title>icons</title><g id="ELEMENTS"><path class="cls-1" d="M493.68,628.37H220.93A139.82,139.82,0,0,1,81.11,488.56V215.8A139.82,139.82,0,0,1,220.93,76H493.68A139.81,139.81,0,0,1,633.49,215.8V488.56A139.81,139.81,0,0,1,493.68,628.37Z"/><path class="cls-2" d="M209.9,511.28l22.75-84.87A156.2,156.2,0,0,1,213,350.7C213,264.3,283.29,194,369.7,194S526.41,264.3,526.41,350.7,456.11,507.41,369.7,507.41a156.42,156.42,0,0,1-74.49-19Zm89.55-54.66,5.37,3.21a127.57,127.57,0,1,0-43.62-43.24l3.29,5.42L251.8,469.39Z"/><path class="cls-3" d="M428,372.5c-6.45-3.86-14.84-8.17-22.44-5.06-5.83,2.38-9.55,11.51-13.33,16.17-1.93,2.39-4.25,2.76-7.23,1.57-21.88-8.72-38.65-23.33-50.72-43.46-2-3.13-1.68-5.59.78-8.49,3.65-4.3,8.23-9.17,9.22-15s-1.73-12.56-4.12-17.71c-3.06-6.59-6.48-16-13.07-19.71-6.07-3.42-14.06-1.5-19.46,2.9-9.33,7.59-13.83,19.49-13.69,31.29a44.6,44.6,0,0,0,1.23,9.92c1.89,7.79,5.48,15.05,9.53,22A173.61,173.61,0,0,0,314.63,362a153.61,153.61,0,0,0,43.13,40,130.23,130.23,0,0,0,26.89,12.79c10.54,3.48,19.93,7.11,31.31,4.95,11.91-2.27,23.66-9.64,28.39-21.12a18.39,18.39,0,0,0,1.32-10.78C444.05,380.5,434,376.09,428,372.5Z"/></g></svg>